<?xml version="1.0" encoding="UTF-8"?>
<svg width="32px" height="32px" viewBox="0 0 32 32" version="1.1" xmlns="http://www.w3.org/2000/svg" xmlns:xlink="http://www.w3.org/1999/xlink">
    <!-- Generator: sketchtool 50.2 (55047) - http://www.bohemiancoding.com/sketch -->
    <title>457DEC97-5493-4DB6-982F-FB6BF74CFAA2@2x</title>
    <desc>Created with sketchtool.</desc>
    <defs></defs>
    <g id="Design" stroke="none" stroke-width="1" fill="none" fill-rule="evenodd">
        <g id="Favicon-32x32">
            <g id="Favicon">
                <g id="Logo">
                    <circle id="Base" fill="#F7F8F9" cx="16" cy="16" r="16"></circle>
                    <g transform="translate(8.500000, 6.000000)">
                        <path d="M6.5,4.3902439 L6.5,3.41463415 L0,3.41463415 L0,0.975609756 L6.5,0.975609756 L6.5,0 L9,0 L9,0.975609756 L15.5,0.975609756 L15.5,3.41463415 L9,3.41463415 L9,4.3902439 L15.5,4.3902439 L15.5,6.82926829 L0,6.82926829 L0,4.3902439 L6.5,4.3902439 Z" id="Combined-Shape" fill="#39B54A"></path>
                        <path d="M15.5,7.80487805 C15.3557171,11.227007 14.7126164,13.9487242 13.5710837,15.7462249 C12.4291266,17.5440973 10.4859363,18.8876687 7.75,20 C5.01363931,18.8876687 3.070449,17.5440973 1.92891632,15.7462249 C0.78699786,13.9487242 0.143897158,11.227007 0,7.80487805 L2.78188312,7.80487805 C2.72787346,10.3496334 3.10709841,12.3947319 3.91994375,13.93943 C4.73317487,15.4844999 6.01243218,16.6113302 7.75,17.3199209 C9.48718204,16.6113302 10.7668251,15.4844999 11.5796705,13.93943 C12.3925158,12.3947319 12.7721265,10.3496334 12.7177311,7.80487805 L15.5,7.80487805 Z" id="Shape" fill="#6B4C9F"></path>
                    </g>
                </g>
            </g>
        </g>
    </g>
</svg>
