<?xml version="1.0" encoding="UTF-8"?>
<svg width="13px" height="13px" viewBox="0 0 13 13" version="1.1" xmlns="http://www.w3.org/2000/svg" xmlns:xlink="http://www.w3.org/1999/xlink">
    <!-- Generator: sketchtool 50.2 (55047) - http://www.bohemiancoding.com/sketch -->
    <title>5168A235-C8BC-46D1-BBDD-E033B4F4436F@2x</title>
    <desc>Created with sketchtool.</desc>
    <defs></defs>
    <g id="Design" stroke="none" stroke-width="1" fill="none" fill-rule="evenodd">
        <g id="04-Dashboard" transform="translate(-1293.000000, -173.000000)" fill="#F5296A">
            <g id="Dashboard" transform="translate(292.000000, 24.000000)">
                <g id="Latest-Transactions" transform="translate(689.000000, 0.000000)">
                    <g id="Transactions" transform="translate(0.000000, 139.000000)">
                        <g id="1">
                            <g>
                                <path d="M319.093612,11.0936124 C318.75764,10.7576404 318.210137,10.7604254 317.884964,11.0855983 L317.725955,11.2446073 C317.39441,11.5761532 317.401217,12.1212271 317.731075,12.4519527 L320.792067,15.5209957 L313.342966,15.5209957 C312.86928,15.5209957 312.485281,15.9112709 312.485281,16.372509 L312.485281,16.5980537 C312.485281,17.0683316 312.863792,17.4495671 313.342966,17.4495671 L320.792067,17.4495671 L317.731075,20.5186101 C317.396701,20.8538626 317.400783,21.4007825 317.725955,21.7259555 L317.884964,21.8849644 C318.21651,22.2165103 318.75868,22.2118827 319.093612,21.8769504 L323.87695,17.0936124 C324.212922,16.7576404 324.211883,16.2118827 323.87695,15.8769504 L319.093612,11.0936124 Z" id="Arrow-Out"></path>
                            </g>
                        </g>
                    </g>
                </g>
            </g>
        </g>
    </g>
</svg>