<?xml version="1.0" encoding="UTF-8"?>
<svg width="12px" height="12px" viewBox="0 0 12 12" version="1.1" xmlns="http://www.w3.org/2000/svg" xmlns:xlink="http://www.w3.org/1999/xlink">
    <!-- Generator: sketchtool 50.2 (55047) - http://www.bohemiancoding.com/sketch -->
    <title>2C12B0B5-1502-44D5-88A3-8823D7893F1F@2x</title>
    <desc>Created with sketchtool.</desc>
    <defs></defs>
    <g id="Design" stroke="none" stroke-width="1" fill="none" fill-rule="evenodd">
        <g id="04-Dashboard" transform="translate(-1293.000000, -223.000000)" fill="#6B4C9F">
            <g id="Dashboard" transform="translate(292.000000, 24.000000)">
                <g id="Latest-Transactions" transform="translate(689.000000, 0.000000)">
                    <g id="Transactions" transform="translate(0.000000, 139.000000)">
                        <g id="2">
                            <g transform="translate(0.000000, 50.000000)">
                                <path d="M318.608331,10.608331 C318.272359,10.2723591 317.724856,10.275144 317.399683,10.6003169 L317.240674,10.7593259 C316.909128,11.0908718 316.915935,11.6359457 317.245793,11.9666713 L320.306786,15.0357143 L312.857685,15.0357143 C312.383999,15.0357143 312,15.4259895 312,15.8872277 L312,16.1127723 C312,16.5830502 312.378511,16.9642857 312.857685,16.9642857 L320.306786,16.9642857 L317.245793,20.0333287 C316.91142,20.3685813 316.915501,20.9155012 317.240674,21.2406741 L317.399683,21.3996831 C317.731229,21.731229 318.273399,21.7266014 318.608331,21.391669 L323.391669,16.608331 C323.727641,16.2723591 323.726601,15.7266014 323.391669,15.391669 L318.608331,10.608331 Z" id="Arrow-In" transform="translate(318.000000, 16.000000) scale(-1, -1) translate(-318.000000, -16.000000) "></path>
                            </g>
                        </g>
                    </g>
                </g>
            </g>
        </g>
    </g>
</svg>
