<?xml version="1.0" encoding="UTF-8"?>
<svg width="42px" height="42px" viewBox="0 0 42 42" version="1.1" xmlns="http://www.w3.org/2000/svg" xmlns:xlink="http://www.w3.org/1999/xlink">
    <!-- Generator: sketchtool 50.2 (55047) - http://www.bohemiancoding.com/sketch -->
    <title>477617D2-5573-44C8-9DD4-DB95E2ABA99B@2x</title>
    <desc>Created with sketchtool.</desc>
    <defs></defs>
    <g id="Design" stroke="none" stroke-width="1" fill="none" fill-rule="evenodd">
        <g id="05.01-Privacy---LinkedIn-Selected" transform="translate(-342.000000, -229.000000)">
            <g id="Dashboard" transform="translate(292.000000, 24.000000)">
                <g id="Big" transform="translate(40.000000, 134.000000)">
                    <g id="Default" transform="translate(10.000000, 71.000000)">
                        <g id="Icon">
                            <circle id="Oval-Copy" fill="#F0EDF5" fill-rule="nonzero" cx="21" cy="21" r="21"></circle>
                            <path d="M19.7619354,17.8626649 L19.7619354,17.004295 L14,17.004295 L14,14.85837 L19.7619354,14.85837 L19.7619354,14 L21.9780644,14 L21.9780644,14.85837 L27.7399998,14.85837 L27.7399998,17.004295 L21.9780644,17.004295 L21.9780644,17.8626649 L27.7399998,17.8626649 L27.7399998,20.0085899 L14,20.0085899 L14,17.8626649 L19.7619354,17.8626649 Z M27.7399998,20.8669599 C27.6120999,23.8778491 27.0420223,26.2724954 26.0301088,27.853989 C25.0178192,29.4358098 23.295275,30.6179231 20.8699999,31.5965848 C18.4443486,30.6179231 16.7218044,29.4358098 15.709891,27.853989 C14.6976355,26.2724954 14.1275579,23.8778491 14,20.8669599 L16.4660047,20.8669599 C16.4181278,23.1059101 16.7542924,24.9052475 17.4748404,26.2643181 C18.1957304,27.6237157 19.3297301,28.615134 20.8699999,29.2385728 C22.4099277,28.615134 23.5442693,27.6237157 24.2648174,26.2643181 C24.9853654,24.9052475 25.321872,23.1059101 25.2736531,20.8669599 L27.7399998,20.8669599 Z" id="Combined-Shape" fill="#6B4C9F" opacity="0.200000003"></path>
                        </g>
                    </g>
                </g>
            </g>
        </g>
    </g>
</svg>