<?xml version="1.0" encoding="UTF-8"?>
<svg width="14px" height="16px" viewBox="0 0 14 16" version="1.1" xmlns="http://www.w3.org/2000/svg" xmlns:xlink="http://www.w3.org/1999/xlink">
    <!-- Generator: sketchtool 50.2 (55047) - http://www.bohemiancoding.com/sketch -->
    <title>645B9F82-CFF3-4A64-B781-38F1FE394A26@2x</title>
    <desc>Created with sketchtool.</desc>
    <defs></defs>
    <g id="Design" stroke="none" stroke-width="1" fill="none" fill-rule="evenodd">
        <g id="04-Dashboard" transform="translate(-1261.000000, -109.000000)">
            <g id="Dashboard" transform="translate(292.000000, 24.000000)">
                <g id="Latest-Transactions" transform="translate(689.000000, 0.000000)">
                    <g id="btns" transform="translate(34.000000, 71.000000)">
                        <g id="Download-btn" transform="translate(201.000000, 0.000000)">
                            <g id="Download-Icon" transform="translate(43.000000, 13.000000)">
                                <rect id="Rectangle-4" x="0" y="0" width="18" height="18"></rect>
                                <path d="M13.8971239,8.57828045 L9.63678058,12.8386237 C9.28433272,13.1910716 8.71860734,13.188895 8.36833606,12.8386237 L4.10799277,8.57828045 C3.75554491,8.2258326 3.76080621,7.65702249 4.1148827,7.302946 L4.08552112,7.33230758 C4.43605234,6.98177636 5.01188987,6.97570367 5.36377167,7.32666243 L8.11400314,10.0696797 L8.11400314,2.39536566 C8.11400314,1.89593542 8.52114598,1.49380574 9.02338214,1.49380574 L8.9817345,1.49380574 C9.47894191,1.49380574 9.8911135,1.89744787 9.8911135,2.39536566 L9.8911135,10.0696797 L12.641345,7.32666243 C12.9896781,6.97924305 13.565519,6.97823109 13.9195955,7.33230758 L13.8902339,7.302946 C14.2407652,7.65347722 14.2473952,8.22800917 13.8971239,8.57828045 Z M2.91176471,12.7058824 C3.35034377,12.7058824 3.70588235,13.0614209 3.70588235,13.5 L3.70588235,14.0294118 C3.70588235,14.7603769 4.29844665,15.3529412 5.02941176,15.3529412 L12.9757193,15.3529412 C13.7066844,15.3529412 14.2992487,14.7603769 14.2992487,14.0294118 L14.2992487,13.4974345 C14.2992487,13.0602723 14.6536387,12.7058824 15.0908008,12.7058824 C15.527963,12.7058824 15.8823529,13.0602723 15.8823529,13.4974345 L15.8823529,14.8235294 C15.8823529,15.9930736 14.9342501,16.9411765 13.7647059,16.9411765 L4.23529412,16.9411765 C3.06574994,16.9411765 2.11764706,15.9930736 2.11764706,14.8235294 L2.11764706,13.5 C2.11764706,13.0614209 2.47318564,12.7058824 2.91176471,12.7058824 Z" id="Combined-Shape" fill="#6B4C9F"></path>
                            </g>
                        </g>
                    </g>
                </g>
            </g>
        </g>
    </g>
</svg>