<?xml version="1.0" encoding="UTF-8"?>
<svg width="11px" height="14px" viewBox="0 0 11 14" version="1.1" xmlns="http://www.w3.org/2000/svg" xmlns:xlink="http://www.w3.org/1999/xlink">
    <!-- Generator: sketchtool 50.2 (55047) - http://www.bohemiancoding.com/sketch -->
    <title>6AA7F572-DC1A-4348-BF53-E37FB3A2485D@2x</title>
    <desc>Created with sketchtool.</desc>
    <defs>
        <path d="M4.35714286,14 L10.6428571,14 C11.5071429,14 12.2142857,13.3 12.2142857,12.4444444 L12.2142857,3.11111111 L2.78571429,3.11111111 L2.78571429,12.4444444 C2.78571429,13.3 3.49285714,14 4.35714286,14 Z M10.25,0.777777778 L9.46428571,0 L5.53571429,0 L4.75,0.777777778 L2.75144958,0.777777778 C2.33643544,0.777777778 2,1.1076711 2,1.51910909 L2,1.59200202 C2,2.001428 2.34127033,2.33333333 2.75607455,2.33333333 L12.2439255,2.33333333 C12.6614939,2.33333333 13,2.00344001 13,1.59200202 L13,1.51910909 C13,1.10968311 12.662796,0.777777778 12.2485504,0.777777778 L10.25,0.777777778 Z" id="path-1"></path>
    </defs>
    <g id="Design" stroke="none" stroke-width="1" fill="none" fill-rule="evenodd">
        <g id="04-Dashboard" transform="translate(-884.000000, -488.000000)">
            <g id="Dashboard" transform="translate(292.000000, 24.000000)">
                <g id="Currency-Equivalent" transform="translate(0.000000, 370.000000)">
                    <g id="EUR" transform="translate(342.000000, 72.000000)">
                        <g id="Edit-&amp;-Delete-Copy" transform="translate(221.000000, 22.000000)">
                            <g id="ic_delete" transform="translate(27.000000, 0.000000)">
                                <rect id="Bounds" x="0" y="0" width="14" height="14"></rect>
                                <mask id="mask-2" fill="white">
                                    <use xlink:href="#path-1"></use>
                                </mask>
                                <use id="Mask" fill="#A2A7AF" xlink:href="#path-1"></use>
                            </g>
                        </g>
                    </g>
                </g>
            </g>
        </g>
    </g>
</svg>