<?xml version="1.0" encoding="UTF-8"?>
<svg width="40px" height="40px" viewBox="0 0 40 40" version="1.1" xmlns="http://www.w3.org/2000/svg" xmlns:xlink="http://www.w3.org/1999/xlink">
    <!-- Generator: sketchtool 50.2 (55047) - http://www.bohemiancoding.com/sketch -->
    <title>8E80ED46-5FDB-4CD7-9127-165568D0A2EB@2x</title>
    <desc>Created with sketchtool.</desc>
    <defs></defs>
    <g id="Design" stroke="none" stroke-width="1" fill="none" fill-rule="evenodd">
        <g id="05.01-Privacy---LinkedIn-Selected" transform="translate(-1315.000000, -155.000000)">
            <g id="Dashboard" transform="translate(292.000000, 24.000000)">
                <g id="Right" transform="translate(589.000000, 131.000000)">
                    <g id="lvl" transform="translate(40.000000, 0.000000)">
                        <g id="Icon-Public" transform="translate(394.000000, 0.000000)">
                            <circle id="Oval" fill="#F0F0F2" cx="20" cy="20" r="20"></circle>
                            <g id="outline-public-24px" transform="translate(8.000000, 8.000000)">
                                <g id="Bounding_Boxes">
                                    <polygon id="Shape" points="0 0 24 0 24 24 0 24"></polygon>
                                </g>
                                <g id="Outline" transform="translate(2.000000, 2.000000)" fill="#6B4C9F" fill-rule="nonzero">
                                    <path d="M10,0 C4.48,0 0,4.48 0,10 C0,15.52 4.48,20 10,20 C15.52,20 20,15.52 20,10 C20,4.48 15.52,0 10,0 Z M2,10 C2,9.39 2.08,8.79 2.21,8.22 L6.99,13 L6.99,14 C6.99,15.1 7.89,16 8.99,16 L8.99,17.93 C5.06,17.43 2,14.07 2,10 Z M15.89,15.4 C15.63,14.59 14.89,14 13.99,14 L12.99,14 L12.99,11 C12.99,10.45 12.54,10 11.99,10 L5.99,10 L5.99,8 L7.99,8 C8.54,8 8.99,7.55 8.99,7 L8.99,5 L10.99,5 C12.09,5 12.99,4.1 12.99,3 L12.99,2.59 C15.92,3.77 18,6.65 18,10 C18,12.08 17.19,13.98 15.89,15.4 Z" id="Shape"></path>
                                </g>
                            </g>
                        </g>
                    </g>
                </g>
            </g>
        </g>
    </g>
</svg>