<?xml version="1.0" encoding="UTF-8"?>
<svg width="40px" height="40px" viewBox="0 0 40 40" version="1.1" xmlns="http://www.w3.org/2000/svg" xmlns:xlink="http://www.w3.org/1999/xlink">
    <!-- Generator: sketchtool 50.2 (55047) - http://www.bohemiancoding.com/sketch -->
    <title>455D0F13-7559-44B3-A3B3-521616CA26D8@2x</title>
    <desc>Created with sketchtool.</desc>
    <defs></defs>
    <g id="Design" stroke="none" stroke-width="1" fill="none" fill-rule="evenodd">
        <g id="05.01-Privacy---LinkedIn-Selected" transform="translate(-936.000000, -155.000000)">
            <g id="Dashboard" transform="translate(292.000000, 24.000000)">
                <g id="Right" transform="translate(589.000000, 131.000000)">
                    <g id="lvl" transform="translate(40.000000, 0.000000)">
                        <g id="Icon-Private" transform="translate(15.000000, 0.000000)">
                            <circle id="Oval" fill="#F0EDF5" cx="20" cy="20" r="20"></circle>
                            <g id="outline-pan_tool-24px" transform="translate(6.000000, 8.000000)">
                                <g id="Bounding_Boxes">
                                    <rect id="Rectangle-path" x="0" y="0" width="24" height="24"></rect>
                                </g>
                                <g id="Outline" transform="translate(1.000000, 0.000000)" fill="#6B4C9F" fill-rule="nonzero">
                                    <path d="M17,24.01 L10.45,24.01 C9.37,24.01 8.31,23.5598124 7.56,22.7794873 L0.26,15.1663151 L2.33,13.3355523 C2.95,12.7853231 3.86,12.6752772 4.59,13.0654398 L7,14.3459733 L7,4.7919925 C7,3.41141726 8.12,2.2909504 9.5,2.2909504 C9.67,2.2909504 9.84,2.31095873 10.01,2.34097124 C10.1,1.04042935 11.18,0.01 12.5,0.01 C13.36,0.01 14.11,0.440179241 14.56,1.10045436 C14.85,0.980404335 15.17,0.920379325 15.5,0.920379325 C16.88,0.920379325 18,2.04084619 18,3.42142143 L18,3.70153814 C18.16,3.67152564 18.33,3.6515173 18.5,3.6515173 C19.88,3.6515173 21,4.77198416 21,6.1525594 L21,20.0083326 C21,22.2192539 19.21,24.01 17,24.01 Z M3.14,15.2863652 L9,21.3889079 C9.38,21.7790704 9.9,22.0091663 10.44,22.0091663 L17,22.0091663 C18.1,22.0091663 19,21.1087912 19,20.0083326 L19,6.1525594 C19,5.87244268 18.78,5.65235098 18.5,5.65235098 C18.22,5.65235098 18,5.87244268 18,6.1525594 L18,12.0049979 L16,12.0049979 L16,3.42142143 C16,3.14130471 15.78,2.92121301 15.5,2.92121301 C15.22,2.92121301 15,3.14130471 15,3.42142143 L15,12.0049979 L13,12.0049979 L13,2.5110421 C13,2.23092539 12.78,2.01083368 12.5,2.01083368 C12.22,2.01083368 12,2.23092539 12,2.5110421 L12,12.0049979 L10,12.0049979 L10,4.7919925 C10,4.51187578 9.78,4.29178408 9.5,4.29178408 C9.22,4.29178408 9,4.52187995 9,4.7919925 L9,17.6673572 L3.65,14.8361776 L3.14,15.2863652 Z" id="Shape"></path>
                                </g>
                            </g>
                        </g>
                    </g>
                </g>
            </g>
        </g>
    </g>
</svg>