<?xml version="1.0" encoding="UTF-8" standalone="no"?>
<svg
   xmlns:dc="http://purl.org/dc/elements/1.1/"
   xmlns:cc="http://creativecommons.org/ns#"
   xmlns:rdf="http://www.w3.org/1999/02/22-rdf-syntax-ns#"
   xmlns:svg="http://www.w3.org/2000/svg"
   xmlns="http://www.w3.org/2000/svg"
   xmlns:sodipodi="http://sodipodi.sourceforge.net/DTD/sodipodi-0.dtd"
   xmlns:inkscape="http://www.inkscape.org/namespaces/inkscape"
   width="17px"
   height="20px"
   viewBox="0 0 17 20"
   version="1.1"
   id="svg18"
   sodipodi:docname="icon-accounts.svg"
   inkscape:version="0.92.1 r15371">
  <metadata
     id="metadata22">
    <rdf:RDF>
      <cc:Work
         rdf:about="">
        <dc:format>image/svg+xml</dc:format>
        <dc:type
           rdf:resource="http://purl.org/dc/dcmitype/StillImage" />
        <dc:title>5B265A1C-D1F1-4547-B39E-8EC40851147C@2x</dc:title>
      </cc:Work>
    </rdf:RDF>
  </metadata>
  <sodipodi:namedview
     pagecolor="#ffffff"
     bordercolor="#666666"
     borderopacity="1"
     objecttolerance="10"
     gridtolerance="10"
     guidetolerance="10"
     inkscape:pageopacity="0"
     inkscape:pageshadow="2"
     inkscape:window-width="1366"
     inkscape:window-height="704"
     id="namedview20"
     showgrid="false"
     inkscape:zoom="11.8"
     inkscape:cx="-6.2542373"
     inkscape:cy="10"
     inkscape:window-x="0"
     inkscape:window-y="27"
     inkscape:window-maximized="1"
     inkscape:current-layer="svg18" />
  <!-- Generator: sketchtool 50.2 (55047) - http://www.bohemiancoding.com/sketch -->
  <title
     id="title2">5B265A1C-D1F1-4547-B39E-8EC40851147C@2x</title>
  <desc
     id="desc4">Created with sketchtool.</desc>
  <defs
     id="defs6" />
  <g
     id="Design"
     stroke="none"
     stroke-width="1"
     fill="none"
     fill-rule="evenodd">
    <g
       id="04-Dashboard"
       transform="translate(-36.000000, -334.000000)">
      <g
         id="Sidebar"
         transform="translate(16.000000, 37.000000)">
        <g
           id="Menu"
           transform="translate(0.000000, 224.000000)">
          <g
             id="Privacy"
             transform="translate(0.000000, 58.000000)">
            <g
               id="outline-security-24px"
               transform="translate(16.000000, 13.000000)">
              <g
                 id="Bounding_Boxes">
                <polygon
                   id="Shape"
                   points="0 0 24 0 24 24 0 24" />
              </g>
              <g
                 id="Outline"
                 transform="translate(4.000000, 2.000000)"
                 fill="#A2A7AF" />
            </g>
          </g>
        </g>
      </g>
    </g>
  </g>
  <path
     d="m 16.650719,12.484049 -1.806091,-1.37406 c 0.03376,-0.264879 0.06752,-0.529758 0.06752,-0.811192 0,-0.281434 -0.01687,-0.5463144 -0.06752,-0.8111924 L 16.63384,8.1135429 c 0.151914,-0.1324396 0.202552,-0.347654 0.101276,-0.5297584 L 15.04718,4.7197782 C 14.945904,4.5376738 14.726473,4.4714539 14.52392,4.5376738 L 12.430879,5.3654212 C 11.992016,5.0343221 11.519394,4.7528881 10.996134,4.5542287 L 10.675426,2.3689753 C 10.658551,2.1703159 10.472873,2.0213214 10.270321,2.0213214 H 6.8944503 c -0.2025525,0 -0.3882255,0.1489945 -0.4219842,0.3476539 L 6.1517583,4.5542287 C 5.6453775,4.769443 5.155876,5.0343221 4.7170127,5.3654212 L 2.6239721,4.5376738 c -0.185673,-0.06622 -0.4051047,0 -0.5232602,0.1821044 L 0.41277583,7.5837845 C 0.31149958,7.7658889 0.34525836,7.9811033 0.51405197,8.1135429 L 2.3032642,9.4876046 c -0.033759,0.264878 -0.050638,0.5297584 -0.050638,0.8111924 0,0.281434 0.016879,0.546313 0.050638,0.811192 l -1.78921223,1.37406 c -0.15191422,0.13244 -0.20255239,0.347654 -0.10127614,0.529759 l 1.68793607,2.864006 c 0.1012761,0.182104 0.3207079,0.248324 0.5232602,0.182104 l 2.0930406,-0.827747 c 0.4388633,0.3311 0.9114855,0.612534 1.4347456,0.811193 l 0.3207078,2.185253 c 0.033759,0.198659 0.2025523,0.347654 0.4219842,0.347654 h 3.3758707 c 0.202552,0 0.388226,-0.148995 0.421984,-0.347654 l 0.320709,-2.185253 c 0.50638,-0.215214 0.995881,-0.480093 1.417865,-0.811193 l 2.109921,0.827747 c 0.185673,0.06622 0.405104,0 0.52326,-0.182104 l 1.687936,-2.864006 c 0.101275,-0.182105 0.05063,-0.397319 -0.101277,-0.529759 z m -8.0683326,0.297989 c -1.4009872,0 -2.5319043,-1.10918 -2.5319043,-2.483241 0,-1.3740615 1.1309171,-2.4832432 2.5319043,-2.4832432 1.4009858,0 2.5319036,1.1091817 2.5319036,2.4832432 0,1.374061 -1.1309178,2.483241 -2.5319036,2.483241 z"
     id="path4"
     inkscape:connector-curvature="0"
     sodipodi:nodetypes="ccsccccccccssccccccccsccccccccsscccccccsssss"
     style="fill:#a2a7af;fill-opacity:1;stroke-width:0.99999994" />
</svg>
