<?xml version="1.0" encoding="UTF-8"?>
<svg width="20px" height="20px" viewBox="0 0 20 20" version="1.1" xmlns="http://www.w3.org/2000/svg" xmlns:xlink="http://www.w3.org/1999/xlink">
    <!-- Generator: sketchtool 50.2 (55047) - http://www.bohemiancoding.com/sketch -->
    <title>116A2811-9E8F-4461-AA90-E853E6AEA19B@2x</title>
    <desc>Created with sketchtool.</desc>
    <defs></defs>
    <g id="Design" stroke="none" stroke-width="1" fill="none" fill-rule="evenodd">
        <g id="04-Dashboard" transform="translate(-34.000000, -849.000000)" fill="#A2A7AF" fill-rule="nonzero">
            <g id="Sidebar" transform="translate(16.000000, 37.000000)">
                <g id="Menu" transform="translate(0.000000, 224.000000)">
                    <g id="Report-a-Bot-btn" transform="translate(0.000000, 573.000000)">
                        <g id="outline-error_outline-24px" transform="translate(16.000000, 13.000000)">
                            <g id="Outline" transform="translate(2.000000, 2.000000)">
                                <path d="M9,13 L11,13 L11,15 L9,15 L9,13 Z M9,5 L11,5 L11,11 L9,11 L9,5 Z M9.99,0 C4.47,0 0,4.48 0,10 C0,15.52 4.47,20 9.99,20 C15.52,20 20,15.52 20,10 C20,4.48 15.52,0 9.99,0 Z M10,18 C5.58,18 2,14.42 2,10 C2,5.58 5.58,2 10,2 C14.42,2 18,5.58 18,10 C18,14.42 14.42,18 10,18 Z" id="Shape"></path>
                            </g>
                        </g>
                    </g>
                </g>
            </g>
        </g>
    </g>
</svg>