<?xml version="1.0" encoding="UTF-8"?>
<svg width="20px" height="20px" viewBox="0 0 20 20" version="1.1" xmlns="http://www.w3.org/2000/svg" xmlns:xlink="http://www.w3.org/1999/xlink">
    <!-- Generator: sketchtool 50.2 (55047) - http://www.bohemiancoding.com/sketch -->
    <title>21CCDA05-17D3-4FA5-9F4E-0CCFDCE3658E@2x</title>
    <desc>Created with sketchtool.</desc>
    <defs></defs>
    <g id="Design" stroke="none" stroke-width="1" fill="none" fill-rule="evenodd">
        <g id="07-Settings---Personal" transform="translate(-769.000000, -597.000000)">
            <g id="Language" transform="translate(752.000000, 552.000000)">
                <g id="outline-language-24px" transform="translate(15.000000, 43.000000)">
                    <g id="Bounding_Boxes">
                        <polygon id="Shape" points="0 0 24 0 24 24 0 24"></polygon>
                    </g>
                    <g id="Outline" transform="translate(2.000000, 2.000000)" fill="#A2A7AF" fill-rule="nonzero">
                        <path d="M9.99,0 C4.47,0 0,4.48 0,10 C0,15.52 4.47,20 9.99,20 C15.52,20 20,15.52 20,10 C20,4.48 15.52,0 9.99,0 Z M16.92,6 L13.97,6 C13.65,4.75 13.19,3.55 12.59,2.44 C14.43,3.07 15.96,4.35 16.92,6 Z M10,2.04 C10.83,3.24 11.48,4.57 11.91,6 L8.09,6 C8.52,4.57 9.17,3.24 10,2.04 Z M2.26,12 C2.1,11.36 2,10.69 2,10 C2,9.31 2.1,8.64 2.26,8 L5.64,8 C5.56,8.66 5.5,9.32 5.5,10 C5.5,10.68 5.56,11.34 5.64,12 L2.26,12 Z M3.08,14 L6.03,14 C6.35,15.25 6.81,16.45 7.41,17.56 C5.57,16.93 4.04,15.66 3.08,14 Z M6.03,6 L3.08,6 C4.04,4.34 5.57,3.07 7.41,2.44 C6.81,3.55 6.35,4.75 6.03,6 Z M10,17.96 C9.17,16.76 8.52,15.43 8.09,14 L11.91,14 C11.48,15.43 10.83,16.76 10,17.96 Z M12.34,12 L7.66,12 C7.57,11.34 7.5,10.68 7.5,10 C7.5,9.32 7.57,8.65 7.66,8 L12.34,8 C12.43,8.65 12.5,9.32 12.5,10 C12.5,10.68 12.43,11.34 12.34,12 Z M12.59,17.56 C13.19,16.45 13.65,15.25 13.97,14 L16.92,14 C15.96,15.65 14.43,16.93 12.59,17.56 Z M14.36,12 C14.44,11.34 14.5,10.68 14.5,10 C14.5,9.32 14.44,8.66 14.36,8 L17.74,8 C17.9,8.64 18,9.31 18,10 C18,10.69 17.9,11.36 17.74,12 L14.36,12 Z" id="Shape"></path>
                    </g>
                </g>
            </g>
        </g>
    </g>
</svg>