<?xml version="1.0" encoding="UTF-8"?>
<svg width="16px" height="20px" viewBox="0 0 16 20" version="1.1" xmlns="http://www.w3.org/2000/svg" xmlns:xlink="http://www.w3.org/1999/xlink">
    <!-- Generator: sketchtool 50.2 (55047) - http://www.bohemiancoding.com/sketch -->
    <title>66510D8D-9B72-4D8E-B8FA-E6D64ABA5730@2x</title>
    <desc>Created with sketchtool.</desc>
    <defs></defs>
    <g id="Design" stroke="none" stroke-width="1" fill="none" fill-rule="evenodd">
        <g id="07-Settings---Personal" transform="translate(-348.000000, -259.000000)">
            <g id="Tabs" transform="translate(332.000000, 112.000000)">
                <g id="Notifications" transform="translate(0.000000, 132.000000)">
                    <g id="outline-notifications_none-24px" transform="translate(12.000000, 13.000000)">
                        <g id="Bounding_Boxes">
                            <polygon id="Shape" points="0 0 24 0 24 24 0 24"></polygon>
                        </g>
                        <g id="Outline" transform="translate(4.000000, 2.000000)" fill="#A2A7AF" fill-rule="nonzero">
                            <path d="M8,20 C9.1,20 10,19.1 10,18 L6,18 C6,19.1 6.9,20 8,20 Z M14,14 L14,9 C14,5.93 12.37,3.36 9.5,2.68 L9.5,2 C9.5,1.17 8.83,0.5 8,0.5 C7.17,0.5 6.5,1.17 6.5,2 L6.5,2.68 C3.64,3.36 2,5.92 2,9 L2,14 L0,16 L0,17 L16,17 L16,16 L14,14 Z M12,15 L4,15 L4,9 C4,6.52 5.51,4.5 8,4.5 C10.49,4.5 12,6.52 12,9 L12,15 Z" id="Shape"></path>
                        </g>
                    </g>
                </g>
            </g>
        </g>
    </g>
</svg>