<?xml version="1.0" encoding="UTF-8"?>
<svg width="18px" height="18px" viewBox="0 0 18 18" version="1.1" xmlns="http://www.w3.org/2000/svg" xmlns:xlink="http://www.w3.org/1999/xlink">
    <!-- Generator: sketchtool 50.2 (55047) - http://www.bohemiancoding.com/sketch -->
    <title>0C774979-060A-45D5-BA45-F8272B9A5CA1@2x</title>
    <desc>Created with sketchtool.</desc>
    <defs></defs>
    <g id="Design" stroke="none" stroke-width="1" fill="none" fill-rule="evenodd">
        <g id="04-Dashboard" transform="translate(-35.000000, -451.000000)">
            <g id="Sidebar" transform="translate(16.000000, 37.000000)">
                <g id="Menu" transform="translate(0.000000, 224.000000)">
                    <g id="Settings" transform="translate(0.000000, 174.000000)">
                        <g id="outline-tune-24px" transform="translate(16.000000, 13.000000)">
                            <g id="Bounding_Boxes">
                                <polygon id="Shape" points="0 0 24 0 24 24 0 24"></polygon>
                            </g>
                            <g id="Outline" transform="translate(3.000000, 3.000000)" fill="#A2A7AF" fill-rule="nonzero">
                                <path d="M0,14 L0,16 L6,16 L6,14 L0,14 Z M0,2 L0,4 L10,4 L10,2 L0,2 Z M10,18 L10,16 L18,16 L18,14 L10,14 L10,12 L8,12 L8,18 L10,18 Z M4,6 L4,8 L0,8 L0,10 L4,10 L4,12 L6,12 L6,6 L4,6 Z M18,10 L18,8 L8,8 L8,10 L18,10 Z M12,6 L14,6 L14,4 L18,4 L18,2 L14,2 L14,0 L12,0 L12,6 Z" id="Shape"></path>
                            </g>
                        </g>
                    </g>
                </g>
            </g>
        </g>
    </g>
</svg>