<?xml version="1.0" encoding="UTF-8" standalone="no"?>
<svg
   xmlns:dc="http://purl.org/dc/elements/1.1/"
   xmlns:cc="http://creativecommons.org/ns#"
   xmlns:rdf="http://www.w3.org/1999/02/22-rdf-syntax-ns#"
   xmlns:svg="http://www.w3.org/2000/svg"
   xmlns="http://www.w3.org/2000/svg"
   xmlns:sodipodi="http://sodipodi.sourceforge.net/DTD/sodipodi-0.dtd"
   xmlns:inkscape="http://www.inkscape.org/namespaces/inkscape"
   width="24"
   height="24"
   viewBox="0 0 24 24"
   version="1.1"
   id="svg6"
   sodipodi:docname="24px(4).svg"
   inkscape:version="0.92.1 r15371">
  <metadata
     id="metadata12">
    <rdf:RDF>
      <cc:Work
         rdf:about="">
        <dc:format>image/svg+xml</dc:format>
        <dc:type
           rdf:resource="http://purl.org/dc/dcmitype/StillImage" />
      </cc:Work>
    </rdf:RDF>
  </metadata>
  <defs
     id="defs10" />
  <sodipodi:namedview
     pagecolor="#ffffff"
     bordercolor="#666666"
     borderopacity="1"
     objecttolerance="10"
     gridtolerance="10"
     guidetolerance="10"
     inkscape:pageopacity="0"
     inkscape:pageshadow="2"
     inkscape:window-width="846"
     inkscape:window-height="474"
     id="namedview8"
     showgrid="false"
     inkscape:zoom="6.9532167"
     inkscape:cx="13.438183"
     inkscape:cy="9.7354617"
     inkscape:window-x="655"
     inkscape:window-y="125"
     inkscape:window-maximized="0"
     inkscape:current-layer="svg6" />
  <path
     fill="none"
     d="M0 0h24v24H0V0z"
     id="path2" />
  <g
     id="g14"
     transform="matrix(0.02346933,0,0,0.02346933,0.48961346,0.13451638)"
     style="stroke-width:42.6088028">
    <g
       transform="matrix(0.1,0,0,-0.1,0,511)"
       id="g12"
       style="stroke-width:42.6088028">
      <path
         d="m 4908.2,4980.7 c -117.2,-58.6 -123,-89.8 -123,-796.7 V 3547.5 H 3619.5 c -1122.7,0 -1169.6,-2 -1230.1,-39.1 -41,-23.4 -70.3,-62.5 -84,-111.3 -15.6,-52.7 -19.5,-634.6 -15.6,-1983.8 l 5.9,-1911.6 64.4,-56.6 62.5,-56.6 h 2573.5 c 2856.6,0 2632.1,-9.8 2690.7,128.9 41,97.6 41,3803.6 0,3903.2 -54.7,130.8 -19.5,126.9 -1310.2,126.9 H 5214.8 V 4184 c 0,708.8 -3.9,740 -126.9,796.7 -80.1,39.1 -101.6,39.1 -179.7,0 z M 4136.9,2670.8 c 324.1,-166 312.4,-615.1 -19.5,-751.7 -93.7,-39.1 -230.4,-39.1 -324.1,-2 -326.1,138.6 -330,619 -3.9,759.6 97.6,42.9 259.7,39 347.5,-5.9 z m 2069.8,7.8 c 294.8,-125 333.9,-533 66.4,-720.5 -111.3,-78.1 -290.9,-93.7 -406.2,-35.2 -322.2,166 -320.2,581.9 2,751.7 76.1,41.1 244.1,41.1 337.8,4 z m 556.5,-1241.8 c 103.5,-46.9 111.3,-91.8 111.3,-593.6 0,-515.5 -7.8,-556.5 -126.9,-607.2 -99.6,-41 -3395.6,-41 -3495.1,0 -119.1,50.8 -126.9,89.8 -126.9,611.2 2,495.9 7.8,533 99.6,583.8 62.4,35.1 3463.8,39 3538,5.8 z"
         id="path4-3"
         style="fill:#a2a7af;fill-opacity:0.98431373;stroke-width:42.6088028"
         inkscape:connector-curvature="0" />
      <path
         d="m 3535.6,843.2 v -205 H 5000 6464.5 v 205 205 H 5000 3535.6 Z"
         id="path6"
         style="fill:#a2a7af;fill-opacity:0.98431373;stroke-width:42.6088028"
         inkscape:connector-curvature="0" />
      <path
         d="m 3965.1,-1246.1 v -205 H 5000 6034.9 v 205 205 H 5000 3965.1 Z"
         id="path8"
         style="fill:#a2a7af;fill-opacity:0.98431373;stroke-width:42.6088028"
         inkscape:connector-curvature="0" />
      <path
         d="m 1159.3,-1892.4 c -126.9,-62.5 -123,-25.4 -123,-1433.2 0,-1411.7 -3.9,-1372.7 126.9,-1433.2 54.7,-25.4 152.3,-31.2 593.6,-31.2 H 2284 l 5.9,880.6 5.9,880.6 64.4,56.6 c 74.2,66.4 181.6,76.2 255.8,25.4 95.7,-68.3 99.6,-101.5 99.6,-1003.6 V -4790 H 5000 7282.6 l 5.9,880.6 5.9,880.6 64.4,56.6 c 74.2,66.4 181.6,76.2 255.8,25.4 95.7,-68.3 99.6,-101.5 99.6,-1003.6 V -4790 h 529.1 c 441.3,0 538.9,5.9 593.6,31.2 130.8,60.5 126.9,21.5 126.9,1433.2 0,1411.7 3.9,1372.7 -126.9,1433.2 -58.6,27.3 -441.3,31.3 -3840.8,31.3 -3387.7,0 -3780.2,-3.9 -3836.8,-31.3 z"
         id="path10"
         style="fill:#a2a7af;fill-opacity:0.98431373;stroke-width:42.6088028"
         inkscape:connector-curvature="0" />
    </g>
  </g>
</svg>
