<?xml version="1.0" encoding="UTF-8"?>
<svg width="17px" height="20px" viewBox="0 0 17 20" version="1.1" xmlns="http://www.w3.org/2000/svg" xmlns:xlink="http://www.w3.org/1999/xlink">
    <!-- Generator: sketchtool 50.2 (55047) - http://www.bohemiancoding.com/sketch -->
    <title>5B265A1C-D1F1-4547-B39E-8EC40851147C@2x</title>
    <desc>Created with sketchtool.</desc>
    <defs></defs>
    <g id="Design" stroke="none" stroke-width="1" fill="none" fill-rule="evenodd">
        <g id="04-Dashboard" transform="translate(-36.000000, -334.000000)">
            <g id="Sidebar" transform="translate(16.000000, 37.000000)">
                <g id="Menu" transform="translate(0.000000, 224.000000)">
                    <g id="Privacy" transform="translate(0.000000, 58.000000)">
                        <g id="outline-security-24px" transform="translate(16.000000, 13.000000)">
                            <g id="Bounding_Boxes">
                                <polygon id="Shape" points="0 0 24 0 24 24 0 24"></polygon>
                            </g>
                            <g id="Outline" transform="translate(4.000000, 2.000000)" fill="#A2A7AF">
                                <path d="M8.18181818,0 L16.3636364,3.63636364 L16.3636364,9.09090909 C16.3636364,14.1363636 12.8727273,18.8545455 8.18181818,20 C3.49090909,18.8545455 0,14.1363636 0,9.09090909 L0,3.63636364 L8.18181818,0 Z M8.09090909,2.3999939 L2,5.19338233 L2,9.38346497 C2,13.2592914 4.59878788,16.8837129 8.09090909,17.7636303 C11.5830303,16.8837129 14.1818182,13.2592914 14.1818182,9.38346497 L14.1818182,5.19338233 L8.09090909,2.3999939 Z" id="Combined-Shape"></path>
                            </g>
                        </g>
                    </g>
                </g>
            </g>
        </g>
    </g>
</svg>