<?xml version="1.0" encoding="UTF-8"?>
<svg width="16px" height="21px" viewBox="0 0 16 21" version="1.1" xmlns="http://www.w3.org/2000/svg" xmlns:xlink="http://www.w3.org/1999/xlink">
    <!-- Generator: sketchtool 50.2 (55047) - http://www.bohemiancoding.com/sketch -->
    <title>302F597D-BC89-4A0A-9F0C-52E783F0049B@2x</title>
    <desc>Created with sketchtool.</desc>
    <defs></defs>
    <g id="Design" stroke="none" stroke-width="1" fill="none" fill-rule="evenodd">
        <g id="07-Settings---Profile" transform="translate(-348.000000, -192.000000)">
            <g id="Tabs" transform="translate(332.000000, 112.000000)">
                <g id="Password" transform="translate(0.000000, 66.000000)">
                    <g id="outline-lock-24px" transform="translate(12.000000, 13.000000)">
                        <g id="Bounding_Boxes">
                            <polygon id="Shape" points="0 0 24 0 24 24 0 24"></polygon>
                            <polygon id="Shape" opacity="0.87" points="0 0 24 0 24 24 0 24"></polygon>
                        </g>
                        <g id="Outline" transform="translate(4.000000, 1.000000)" fill="#A2A7AF" fill-rule="nonzero">
                            <path d="M14,7 L13,7 L13,5 C13,2.24 10.76,0 8,0 C5.24,0 3,2.24 3,5 L3,7 L2,7 C0.9,7 0,7.9 0,9 L0,19 C0,20.1 0.9,21 2,21 L14,21 C15.1,21 16,20.1 16,19 L16,9 C16,7.9 15.1,7 14,7 Z M5,5 C5,3.34 6.34,2 8,2 C9.66,2 11,3.34 11,5 L11,7 L5,7 L5,5 Z M14,19 L2,19 L2,9 L14,9 L14,19 Z M8,16 C9.1,16 10,15.1 10,14 C10,12.9 9.1,12 8,12 C6.9,12 6,12.9 6,14 C6,15.1 6.9,16 8,16 Z" id="Shape"></path>
                        </g>
                    </g>
                </g>
            </g>
        </g>
    </g>
</svg>