<?xml version="1.0" encoding="UTF-8"?>
<svg width="20px" height="13px" viewBox="0 0 20 13" version="1.1" xmlns="http://www.w3.org/2000/svg" xmlns:xlink="http://www.w3.org/1999/xlink">
    <!-- Generator: sketchtool 50.2 (55047) - http://www.bohemiancoding.com/sketch -->
    <title>E36D33E5-5202-444E-914C-5FC4BCC72A55@2x</title>
    <desc>Created with sketchtool.</desc>
    <defs></defs>
    <g id="Design" stroke="none" stroke-width="1" fill="none" fill-rule="evenodd" opacity="0.200000003">
        <g id="02-Sign-up" transform="translate(-920.000000, -602.000000)">
            <g id="Sign-Up" transform="translate(483.000000, 129.000000)">
                <g id="Password" transform="translate(0.000000, 424.000000)">
                    <g id="Hide-/-Show-Icon" transform="translate(437.000000, 46.000000)">
                        <g id="outline-visibility-20px">
                            <g id="Bounding_Boxes">
                                <polygon id="Shape" points="0 0 20 0 20 20 0 20"></polygon>
                            </g>
                            <g id="Outline" transform="translate(0.833333, 3.333333)" fill="#000000" fill-rule="nonzero">
                                <g id="Group">
                                    <path d="M9.16666667,1.66666667 C12.325,1.66666667 15.1416667,3.44166667 16.5166667,6.25 C15.1416667,9.05833333 12.325,10.8333333 9.16666667,10.8333333 C6.00833333,10.8333333 3.19166667,9.05833333 1.81666667,6.25 C3.19166667,3.44166667 6.00833333,1.66666667 9.16666667,1.66666667 Z M9.16666667,0 C5,0 1.44166667,2.59166667 0,6.25 C1.44166667,9.90833333 5,12.5 9.16666667,12.5 C13.3333333,12.5 16.8916667,9.90833333 18.3333333,6.25 C16.8916667,2.59166667 13.3333333,0 9.16666667,0 Z" id="Shape"></path>
                                    <path d="M9.16666667,4.16666667 C10.3166667,4.16666667 11.25,5.1 11.25,6.25 C11.25,7.4 10.3166667,8.33333333 9.16666667,8.33333333 C8.01666667,8.33333333 7.08333333,7.4 7.08333333,6.25 C7.08333333,5.1 8.01666667,4.16666667 9.16666667,4.16666667 Z M9.16666667,2.5 C7.1,2.5 5.41666667,4.18333333 5.41666667,6.25 C5.41666667,8.31666667 7.1,10 9.16666667,10 C11.2333333,10 12.9166667,8.31666667 12.9166667,6.25 C12.9166667,4.18333333 11.2333333,2.5 9.16666667,2.5 Z" id="Shape"></path>
                                </g>
                            </g>
                        </g>
                    </g>
                </g>
            </g>
        </g>
    </g>
</svg>