<?xml version="1.0" encoding="UTF-8"?>
<svg width="21px" height="18px" viewBox="0 0 21 18" version="1.1" xmlns="http://www.w3.org/2000/svg" xmlns:xlink="http://www.w3.org/1999/xlink">
    <!-- Generator: sketchtool 50.2 (55047) - http://www.bohemiancoding.com/sketch -->
    <title>9D8970DB-45CE-4C04-8B8E-9DDA5AFCFE07@2x</title>
    <desc>Created with sketchtool.</desc>
    <defs></defs>
    <g id="Design" stroke="none" stroke-width="1" fill="none" fill-rule="evenodd">
        <g id="04-Dashboard" transform="translate(-33.000000, -393.000000)">
            <g id="Sidebar" transform="translate(16.000000, 37.000000)">
                <g id="Menu" transform="translate(0.000000, 224.000000)">
                    <g id="Transactions" transform="translate(0.000000, 116.000000)">
                        <g id="outline-history-24px" transform="translate(16.000000, 13.000000)">
                            <g id="Bounding_Boxes">
                                <polygon id="Shape" points="0 0 24 0 24 24 0 24"></polygon>
                            </g>
                            <g id="Fill" transform="translate(1.000000, 3.000000)" fill="#A2A7AF" fill-rule="nonzero">
                                <path d="M12,0 C16.97,0 21,4.03 21,9 C21,13.97 16.97,18 12,18 C9.51,18 7.27,16.99 5.64,15.36 L7.06,13.94 C8.32,15.21 10.07,16 12,16 C15.87,16 19,12.87 19,9 C19,5.13 15.87,2 12,2 C8.13,2 5,5.13 5,9 L8,9 L4,12.99 L0,9 L3,9 C3,4.03 7.03,0 12,0 Z M11,5 L12.5,5 L12.5,9.15 L16.02,11.24 L15.25,12.52 L11,10 L11,5 Z" id="Combined-Shape"></path>
                            </g>
                        </g>
                    </g>
                </g>
            </g>
        </g>
    </g>
</svg>