<?xml version="1.0" encoding="UTF-8"?>
<svg width="18px" height="18px" viewBox="0 0 18 18" version="1.1" xmlns="http://www.w3.org/2000/svg" xmlns:xlink="http://www.w3.org/1999/xlink">
    <!-- Generator: sketchtool 50.2 (55047) - http://www.bohemiancoding.com/sketch -->
    <title>C76E2A71-3499-4EF1-81F8-F353698E52E8@2x</title>
    <desc>Created with sketchtool.</desc>
    <defs></defs>
    <g id="Design" stroke="none" stroke-width="1" fill="none" fill-rule="evenodd">
        <g id="04-Dashboard" transform="translate(-35.000000, -277.000000)">
            <g id="Sidebar" transform="translate(16.000000, 37.000000)">
                <g id="Menu" transform="translate(0.000000, 224.000000)">
                    <g id="Dashboard">
                        <g id="outline-dashboard-24px" transform="translate(16.000000, 13.000000)">
                            <g id="Bounding_Boxes">
                                <polygon id="Shape" points="0 0 24 0 24 24 0 24"></polygon>
                            </g>
                            <g id="Outline" transform="translate(3.000000, 3.000000)" fill="#A2A7AF" fill-rule="nonzero">
                                <path d="M16,4 L12,4 L12,2 L16,2 L16,4 Z M6,8 L2,8 L2,2 L6,2 L6,8 Z M16,16 L12,16 L12,10 L16,10 L16,16 Z M6,16 L2,16 L2,14 L6,14 L6,16 Z M10,0 L10,6 L18,6 L18,0 L10,0 Z M0,0 L0,10 L8,10 L8,0 L0,0 Z M10,8 L10,18 L18,18 L18,8 L10,8 Z M0,12 L0,18 L8,18 L8,12 L0,12 Z" id="Shape"></path>
                            </g>
                        </g>
                    </g>
                </g>
            </g>
        </g>
    </g>
</svg>
