<?xml version="1.0" encoding="UTF-8"?>
<svg width="14px" height="20px" viewBox="0 0 14 20" version="1.1" xmlns="http://www.w3.org/2000/svg" xmlns:xlink="http://www.w3.org/1999/xlink">
    <!-- Generator: sketchtool 50.2 (55047) - http://www.bohemiancoding.com/sketch -->
    <title>3F2A0E4F-5683-4BE2-84A4-09297352C265@2x</title>
    <desc>Created with sketchtool.</desc>
    <defs></defs>
    <g id="Design" stroke="none" stroke-width="1" fill="none" fill-rule="evenodd">
        <g id="Profile" transform="translate(-772.000000, -499.000000)">
            <g id="Country" transform="translate(752.000000, 454.000000)">
                <g id="outline-location_on-24px" transform="translate(15.000000, 43.000000)">
                    <g id="Bounding_Boxes">
                        <polygon id="Shape" points="0 0 24 0 24 24 0 24"></polygon>
                    </g>
                    <g id="Outline" transform="translate(5.000000, 2.000000)" fill="#A2A7AF" fill-rule="nonzero">
                        <g id="Group">
                            <path d="M7,0 C3.13,0 0,3.13 0,7 C0,12.25 7,20 7,20 C7,20 14,12.25 14,7 C14,3.13 10.87,0 7,0 Z M2,7 C2,4.24 4.24,2 7,2 C9.76,2 12,4.24 12,7 C12,9.88 9.12,14.19 7,16.88 C4.92,14.21 2,9.85 2,7 Z" id="Shape"></path>
                            <circle id="Oval" cx="7" cy="7" r="2.5"></circle>
                        </g>
                    </g>
                </g>
            </g>
        </g>
    </g>
</svg>