<?xml version="1.0" encoding="UTF-8" standalone="no"?>
<svg
   xmlns:dc="http://purl.org/dc/elements/1.1/"
   xmlns:cc="http://creativecommons.org/ns#"
   xmlns:rdf="http://www.w3.org/1999/02/22-rdf-syntax-ns#"
   xmlns:svg="http://www.w3.org/2000/svg"
   xmlns="http://www.w3.org/2000/svg"
   xmlns:sodipodi="http://sodipodi.sourceforge.net/DTD/sodipodi-0.dtd"
   xmlns:inkscape="http://www.inkscape.org/namespaces/inkscape"
   width="17px"
   height="20px"
   viewBox="0 0 17 20"
   version="1.1"
   id="svg18"
   sodipodi:docname="outline-app-24px@2x.svg"
   inkscape:version="0.92.1 r15371">
  <metadata
     id="metadata22">
    <rdf:RDF>
      <cc:Work
         rdf:about="">
        <dc:format>image/svg+xml</dc:format>
        <dc:type
           rdf:resource="http://purl.org/dc/dcmitype/StillImage" />
      </cc:Work>
    </rdf:RDF>
  </metadata>
  <sodipodi:namedview
     pagecolor="#ffffff"
     bordercolor="#666666"
     borderopacity="1"
     objecttolerance="10"
     gridtolerance="10"
     guidetolerance="10"
     inkscape:pageopacity="0"
     inkscape:pageshadow="2"
     inkscape:window-width="846"
     inkscape:window-height="480"
     id="namedview20"
     showgrid="false"
     inkscape:zoom="11.8"
     inkscape:cx="8.8389831"
     inkscape:cy="10"
     inkscape:window-x="561"
     inkscape:window-y="75"
     inkscape:window-maximized="0"
     inkscape:current-layer="svg18" />
  <!-- Generator: sketchtool 50.2 (55047) - http://www.bohemiancoding.com/sketch -->
  <title
     id="title2">5B265A1C-D1F1-4547-B39E-8EC40851147C@2x</title>
  <desc
     id="desc4">Created with sketchtool.</desc>
  <defs
     id="defs6" />
  <g
     id="Design"
     stroke="none"
     stroke-width="1"
     fill="none"
     fill-rule="evenodd">
    <g
       id="04-Dashboard"
       transform="translate(-36.000000, -334.000000)">
      <g
         id="Sidebar"
         transform="translate(16.000000, 37.000000)">
        <g
           id="Menu"
           transform="translate(0.000000, 224.000000)">
          <g
             id="Privacy"
             transform="translate(0.000000, 58.000000)">
            <g
               id="outline-security-24px"
               transform="translate(16.000000, 13.000000)">
              <g
                 id="Bounding_Boxes">
                <polygon
                   id="Shape"
                   points="0 0 24 0 24 24 0 24" />
              </g>
              <g
                 id="Outline"
                 transform="translate(4.000000, 2.000000)"
                 fill="#A2A7AF" />
            </g>
          </g>
        </g>
      </g>
    </g>
  </g>
  <g
     style="fill:none;fill-rule:evenodd;stroke:none;stroke-width:1"
     id="Design-3"
     transform="matrix(0.49542819,0,0,0.49542819,0.98644071,0.1694919)">
    <g
       id="04-Dashboard-6"
       transform="translate(-332,-99)">
      <g
         id="Dashboard"
         transform="translate(292,24)">
        <g
           id="Balance">
          <g
             id="Seed-Icon"
             transform="translate(40,75)">
            <path
               style="fill:#a2a7af;fill-opacity:1"
               inkscape:connector-curvature="0"
               d="M 12.748387,8.7428571 V 6.8 H 0 V 1.9428571 H 12.748387 V 0 h 4.903226 V 1.9428571 H 30.4 V 6.8 H 17.651613 V 8.7428571 H 30.4 V 13.6 H 0 V 8.7428571 Z"
               id="Combined-Shape" />
            <path
               style="fill:#a2a7af;fill-opacity:1"
               inkscape:connector-curvature="0"
               d="M 30.4,16 C 30.117019,22.73475 28.855712,28.091089 26.616835,31.628571 24.377126,35.166783 20.565965,37.810932 15.2,40 9.8332022,37.810932 6.0220419,35.166783 3.7831649,31.628571 1.5435313,28.091089 0.2822241,22.73475 0,16 h 5.4560804 c -0.1059286,5.008078 0.6378416,9.032832 2.2320673,12.072798 1.5949824,3.040698 4.1039773,5.2583 7.5118523,6.652806 3.407118,-1.394506 5.91687,-3.612108 7.511096,-6.652806 C 24.305321,25.032832 25.049848,21.008078 24.943163,16 Z"
               id="Shape-7" />
          </g>
        </g>
      </g>
    </g>
  </g>
</svg>
