<?xml version="1.0" encoding="UTF-8"?>
<svg width="16px" height="16px" viewBox="0 0 16 16" version="1.1" xmlns="http://www.w3.org/2000/svg" xmlns:xlink="http://www.w3.org/1999/xlink">
    <!-- Generator: sketchtool 50.2 (55047) - http://www.bohemiancoding.com/sketch -->
    <title>8690ED5D-8CC1-4932-A0CB-E8F785097F97@2x</title>
    <desc>Created with sketchtool.</desc>
    <defs></defs>
    <g id="Design" stroke="none" stroke-width="1" fill="none" fill-rule="evenodd">
        <g id="02-Sign-up" transform="translate(-502.000000, -280.000000)">
            <g id="Sign-Up" transform="translate(483.000000, 129.000000)">
                <g id="Username" transform="translate(0.000000, 103.000000)">
                    <g id="outline-person-24px" transform="translate(15.000000, 44.000000)">
                        <g id="Bounding_Boxes">
                            <polygon id="Shape" points="0 0 24 0 24 24 0 24"></polygon>
                        </g>
                        <g id="Outline" transform="translate(4.000000, 4.000000)" fill="#A2A7AF" fill-rule="nonzero">
                            <path d="M8,2 C9.1,2 10,2.9 10,4 C10,5.1 9.1,6 8,6 C6.9,6 6,5.1 6,4 C6,2.9 6.9,2 8,2 Z M8,12 C10.7,12 13.8,13.29 14,14 L2,14 C2.23,13.28 5.31,12 8,12 Z M8,0 C5.79,0 4,1.79 4,4 C4,6.21 5.79,8 8,8 C10.21,8 12,6.21 12,4 C12,1.79 10.21,0 8,0 Z M8,10 C5.33,10 0,11.34 0,14 L0,16 L16,16 L16,14 C16,11.34 10.67,10 8,10 Z" id="Shape"></path>
                        </g>
                    </g>
                </g>
            </g>
        </g>
    </g>
</svg>