<?xml version="1.0" encoding="UTF-8"?>
<svg width="18px" height="18px" viewBox="0 0 18 18" version="1.1" xmlns="http://www.w3.org/2000/svg" xmlns:xlink="http://www.w3.org/1999/xlink">
    <!-- Generator: sketchtool 50.2 (55047) - http://www.bohemiancoding.com/sketch -->
    <title>966C0ED5-2998-40DC-9AF5-38C4F03BB4EC@2x</title>
    <desc>Created with sketchtool.</desc>
    <defs></defs>
    <g id="Design" stroke="none" stroke-width="1" fill="none" fill-rule="evenodd">
        <g id="Style" transform="translate(-133.000000, -349.000000)" fill="#F5296A" fill-rule="nonzero">
            <g id="Inputs" transform="translate(80.000000, 148.000000)">
                <g id="Email" transform="translate(52.000000, 107.000000)">
                    <g id="Error" transform="translate(0.000000, 93.000000)">
                        <g id="outline-error_outline-20px">
                            <g id="Outline" transform="translate(1.666667, 1.666667)">
                                <path d="M7.5,10.8333333 L9.16666667,10.8333333 L9.16666667,12.5 L7.5,12.5 L7.5,10.8333333 Z M7.5,4.16666667 L9.16666667,4.16666667 L9.16666667,9.16666667 L7.5,9.16666667 L7.5,4.16666667 Z M8.325,0 C3.725,0 0,3.73333333 0,8.33333333 C0,12.9333333 3.725,16.6666667 8.325,16.6666667 C12.9333333,16.6666667 16.6666667,12.9333333 16.6666667,8.33333333 C16.6666667,3.73333333 12.9333333,0 8.325,0 Z M8.33333333,15 C4.65,15 1.66666667,12.0166667 1.66666667,8.33333333 C1.66666667,4.65 4.65,1.66666667 8.33333333,1.66666667 C12.0166667,1.66666667 15,4.65 15,8.33333333 C15,12.0166667 12.0166667,15 8.33333333,15 Z" id="Shape"></path>
                            </g>
                        </g>
                    </g>
                </g>
            </g>
        </g>
    </g>
</svg>