<?xml version="1.0" encoding="UTF-8" standalone="no"?>
<svg
   xmlns:dc="http://purl.org/dc/elements/1.1/"
   xmlns:cc="http://creativecommons.org/ns#"
   xmlns:rdf="http://www.w3.org/1999/02/22-rdf-syntax-ns#"
   xmlns:svg="http://www.w3.org/2000/svg"
   xmlns="http://www.w3.org/2000/svg"
   xmlns:sodipodi="http://sodipodi.sourceforge.net/DTD/sodipodi-0.dtd"
   xmlns:inkscape="http://www.inkscape.org/namespaces/inkscape"
   width="16px"
   height="21px"
   viewBox="0 0 16 21"
   version="1.1"
   id="svg20"
   sodipodi:docname="outline-lock-primary-24px@2x.svg"
   inkscape:version="0.92.1 r15371">
  <metadata
     id="metadata24">
    <rdf:RDF>
      <cc:Work
         rdf:about="">
        <dc:format>image/svg+xml</dc:format>
        <dc:type
           rdf:resource="http://purl.org/dc/dcmitype/StillImage" />
      </cc:Work>
    </rdf:RDF>
  </metadata>
  <sodipodi:namedview
     pagecolor="#ffffff"
     bordercolor="#666666"
     borderopacity="1"
     objecttolerance="10"
     gridtolerance="10"
     guidetolerance="10"
     inkscape:pageopacity="0"
     inkscape:pageshadow="2"
     inkscape:window-width="1366"
     inkscape:window-height="704"
     id="namedview22"
     showgrid="false"
     inkscape:zoom="11.238095"
     inkscape:cx="26.241525"
     inkscape:cy="10.144068"
     inkscape:window-x="0"
     inkscape:window-y="27"
     inkscape:window-maximized="1"
     inkscape:current-layer="svg20" />
  <!-- Generator: sketchtool 50.2 (55047) - http://www.bohemiancoding.com/sketch -->
  <title
     id="title2">302F597D-BC89-4A0A-9F0C-52E783F0049B@2x</title>
  <desc
     id="desc4">Created with sketchtool.</desc>
  <defs
     id="defs6" />
  <g
     id="g4566">
    <g
       id="g4554">
      <g
         style="fill:none;fill-rule:evenodd;stroke:none;stroke-width:1"
         id="outline-lock-24px"
         transform="translate(-4,-1)">
        <g
           id="Bounding_Boxes">
          <polygon
             id="Shape"
             points="0,0 24,0 24,24 0,24 " />
          <polygon
             id="polygon9"
             points="0,0 24,0 24,24 0,24 "
             style="opacity:0.87000002" />
        </g>
        <g
           id="Outline"
           transform="translate(4,1)"
           style="fill:#a2a7af;fill-rule:nonzero">
          <path
             d="M 14,7 H 13 V 5 C 13,2.24 10.76,0 8,0 5.24,0 3,2.24 3,5 V 7 H 2 C 0.9,7 0,7.9 0,9 v 10 c 0,1.1 0.9,2 2,2 h 12 c 1.1,0 2,-0.9 2,-2 V 9 C 16,7.9 15.1,7 14,7 Z M 5,5 C 5,3.34 6.34,2 8,2 9.66,2 11,3.34 11,5 V 7 H 5 Z m 9,14 H 2 V 9 H 14 Z M 8,16 c 1.1,0 2,-0.9 2,-2 0,-1.1 -0.9,-2 -2,-2 -1.1,0 -2,0.9 -2,2 0,1.1 0.9,2 2,2 z"
             id="path12"
             inkscape:connector-curvature="0" />
        </g>
      </g>
      <path
         style="fill:#6b4c9f;stroke:none;stroke-width:0.08898305;fill-opacity:1"
         d="M 1.2755404,20.829812 C 0.83859895,20.65543 0.44641778,20.271485 0.23619169,19.812291 L 0.02184916,19.344106 0.04672966,13.878332 0.07161017,8.4125599 0.33993315,7.9786471 C 0.74297661,7.326874 1.3304331,7.0474576 2.2977044,7.0474576 H 3.035256 L 3.0694737,5.4680085 C 3.1017569,3.9778559 3.1180157,3.8533437 3.3570551,3.265678 4.0390701,1.5889792 5.3176965,0.51162933 7.0651498,0.14129749 9.0268101,-0.27443062 11.241688,0.71528102 12.267704,2.4660433 c 0.507381,0.865782 0.606071,1.3127165 0.657969,2.9797194 l 0.04848,1.5572034 0.800847,0.052286 c 0.440466,0.028757 0.880932,0.084732 0.978814,0.1243878 0.403327,0.1634063 0.787949,0.5410851 0.987519,0.9696926 l 0.212013,0.4553289 3.56e-4,5.3389826 c 2.67e-4,3.192534 -0.03447,5.464193 -0.08628,5.650424 -0.121124,0.435307 -0.589209,0.971408 -1.018344,1.166318 -0.342017,0.15534 -0.724639,0.164313 -6.8579892,0.160833 -4.0511905,-0.0023 -6.5784802,-0.0367 -6.7155613,-0.09141 z M 13.997458,14.032627 V 9.0050847 H 7.9911017 1.9847458 v 5.0275423 5.027542 H 7.9911017 13.997458 Z M 11.045238,5.6904661 C 11.012847,4.42722 10.992952,4.2951507 10.757256,3.7787265 10.463216,3.1344701 9.8404275,2.504069 9.2117027,2.2142832 8.879262,2.0610579 8.6253654,2.0208222 7.9911017,2.020851 7.2808505,2.0208833 7.1314162,2.0506165 6.6701416,2.2836858 6.380726,2.4299195 5.9782942,2.7374948 5.7628484,2.9771224 5.1832583,3.6217662 5.0043258,4.1939452 4.9449529,5.5925378 c -0.02732,0.6435441 -0.025079,1.2341691 0.00498,1.3125 0.048628,0.1267226 0.389464,0.1424198 3.0923761,0.1424198 h 3.037724 z"
         id="path4539"
         inkscape:connector-curvature="0" />
      <path
         style="fill:#a0a0a0;stroke:none;stroke-width:0.08898305"
         d="M 7.1503582,15.7585 C 6.4024523,15.388293 6.0217931,14.710147 6.0768187,13.845985 6.1556919,12.607306 7.3278592,11.789947 8.552468,12.1197 c 0.5420047,0.145946 1.1878189,0.791763 1.3337668,1.333773 0.4336542,1.610467 -1.2586329,3.03625 -2.7358766,2.305027 z"
         id="path4541"
         inkscape:connector-curvature="0" />
      <path
         style="fill:#6b4c9f;stroke:none;stroke-width:0.08898305;fill-opacity:1"
         d="M 7.1503582,15.7585 C 6.481877,15.427607 6.0601695,14.766246 6.0601695,14.048763 c 0,-0.824223 0.3862995,-1.444501 1.1245605,-1.805699 1.8616883,-0.910839 3.661526,1.471096 2.2742535,3.009785 -0.6155113,0.682693 -1.541307,0.885467 -2.3086253,0.505651 z"
         id="path4543"
         inkscape:connector-curvature="0" />
    </g>
  </g>
</svg>
