<?xml version="1.0" encoding="UTF-8" standalone="no"?>
<svg
   xmlns:dc="http://purl.org/dc/elements/1.1/"
   xmlns:cc="http://creativecommons.org/ns#"
   xmlns:rdf="http://www.w3.org/1999/02/22-rdf-syntax-ns#"
   xmlns:svg="http://www.w3.org/2000/svg"
   xmlns="http://www.w3.org/2000/svg"
   xmlns:sodipodi="http://sodipodi.sourceforge.net/DTD/sodipodi-0.dtd"
   xmlns:inkscape="http://www.inkscape.org/namespaces/inkscape"
   width="20px"
   height="16px"
   viewBox="0 0 20 16"
   version="1.1"
   id="svg16"
   sodipodi:docname="outline-mail-primary-24px@2x.svg"
   inkscape:version="0.92.1 r15371">
  <metadata
     id="metadata20">
    <rdf:RDF>
      <cc:Work
         rdf:about="">
        <dc:format>image/svg+xml</dc:format>
        <dc:type
           rdf:resource="http://purl.org/dc/dcmitype/StillImage" />
      </cc:Work>
    </rdf:RDF>
  </metadata>
  <sodipodi:namedview
     pagecolor="#ffffff"
     bordercolor="#666666"
     borderopacity="1"
     objecttolerance="10"
     gridtolerance="10"
     guidetolerance="10"
     inkscape:pageopacity="0"
     inkscape:pageshadow="2"
     inkscape:window-width="1366"
     inkscape:window-height="704"
     id="namedview18"
     showgrid="false"
     inkscape:zoom="14.75"
     inkscape:cx="8.3389831"
     inkscape:cy="9.7775206"
     inkscape:window-x="0"
     inkscape:window-y="27"
     inkscape:window-maximized="1"
     inkscape:current-layer="07-Settings---Profile"
     showguides="false" />
  <!-- Generator: sketchtool 50.2 (55047) - http://www.bohemiancoding.com/sketch -->
  <title
     id="title2">F23A4E6A-3F75-4CD5-8115-BD8CAC9989B4@2x</title>
  <desc
     id="desc4">Created with sketchtool.</desc>
  <defs
     id="defs6" />
  <g
     style="fill:none;fill-rule:evenodd;stroke:none;stroke-width:1"
     transform="translate(-769,-275)"
     id="07-Settings---Profile">
    <g
       id="g4550">
      <g
         transform="translate(767,270)"
         id="Bounding_Boxes">
        <polygon
           id="Shape"
           points="24,24 0,24 0,0 24,0 " />
      </g>
      <g
         id="g4539">
        <g
           style="fill:#a2a7af;fill-rule:nonzero"
           transform="translate(769,275)"
           id="Outline">
          <path
             inkscape:connector-curvature="0"
             id="XMLID_497_"
             d="M 20,2 C 20,0.9 19.1,0 18,0 H 2 C 0.9,0 0,0.9 0,2 v 12 c 0,1.1 0.9,2 2,2 h 16 c 1.1,0 2,-0.9 2,-2 z M 18,2 10,6.99 2,2 Z m 0,12 H 2 V 4 l 8,5 8,-5 z" />
        </g>
        <path
           style="fill:#a0a0a0;stroke:none;stroke-width:0.06779661"
           d="M 1.1864407,15.785881 C 0.76270685,15.587684 0.33196513,15.125375 0.16310406,14.687549 0.03931975,14.366599 0.03389831,14.085138 0.03389831,7.979661 c 0,-5.1352699 0.01754067,-6.422442 0.09032286,-6.6280862 C 0.27803603,0.91697492 0.69833742,0.45358542 1.1317369,0.24077141 L 1.5254237,0.04745763 H 10 18.474576 l 0.393687,0.19331378 c 0.433399,0.21281401 0.853701,0.67620351 1.007516,1.11080339 0.07278,0.2056442 0.09032,1.4928163 0.09032,6.6280862 0,6.105477 -0.0054,6.386938 -0.129206,6.707888 -0.168861,0.437826 -0.599603,0.900135 -1.023337,1.098332 l -0.338983,0.158557 H 10 1.5254237 Z M 18.033898,9.0232549 c 0,-4.248515 -0.01447,-5.0186491 -0.09374,-4.9882325 -0.05156,0.019783 -1.854414,1.1366407 -4.006353,2.4819049 C 11.781871,7.8621919 9.9859166,8.9429559 9.9428,8.9186258 9.8996841,8.8942963 8.1376102,7.7967492 6.0270812,6.4796331 3.9165521,5.1625169 2.1394334,4.065566 2.0779286,4.0419644 1.9746437,4.0023302 1.9661017,4.3828334 1.9661017,9.0232549 V 14.047458 H 10 18.033898 Z M 13.919883,4.5808897 c 2.1322,-1.3286463 3.9214,-2.4574599 3.976001,-2.5084746 0.08403,-0.078511 -1.128275,-0.092754 -7.894915,-0.092754 -5.619025,0 -7.9728889,0.0213 -7.9224975,0.071692 0.099075,0.099075 7.8404349,4.9348261 7.9092078,4.9405996 0.030512,0.00256 1.8000037,-1.0824166 3.9322037,-2.411063 z"
           id="path3720"
           inkscape:connector-curvature="0"
           transform="translate(769,275)" />
        <path
           style="fill:#a0a0a0;stroke:none;stroke-width:0.06779661"
           d="M 1.241335,15.813807 C 0.82627017,15.625365 0.37730653,15.179885 0.19412007,14.774715 L 0.03389831,14.420339 V 7.979661 1.5389831 L 0.17960446,1.2237854 C 0.36585127,0.82088841 0.80732908,0.3794106 1.210226,0.19316378 L 1.5254237,0.04745763 H 10 18.474576 l 0.315198,0.14570615 c 0.402897,0.18624682 0.844374,0.62772463 1.030621,1.03062162 l 0.145707,0.3151977 v 6.4406779 6.440678 l -0.160222,0.354376 c -0.183186,0.40517 -0.63215,0.85065 -1.047215,1.039092 -0.274379,0.12457 -0.573732,0.128978 -8.758665,0.128978 -8.1849332,0 -8.4842858,-0.0044 -8.758665,-0.128978 z M 18.03286,9.1152542 C 18.032318,6.4025424 18.009071,4.1472844 17.981265,4.1035698 17.947116,4.0498829 16.706031,4.7869551 14.157033,6.3747563 12.081511,7.6676231 10.294548,8.777541 10.186005,8.84124 L 9.9886529,8.9570563 6.0306546,6.4878503 C 3.2721297,4.7669384 2.0568252,4.043556 2.0204172,4.1008475 1.9916856,4.1460594 1.9677108,6.4025424 1.9671399,9.1152542 l -0.00104,4.9322038 H 10 18.033898 l -0.001,-4.9322038 z m -7.078114,-2.698936 c 4.020657,-2.4727186 6.933652,-4.3332515 6.858845,-4.3807511 -0.110215,-0.069982 -15.7118961,-0.072663 -15.7118961,-0.0027 0,0.048348 7.7778244,4.9498295 7.8700007,4.9595698 0.021721,0.0023 0.4640934,-0.256958 0.9830504,-0.5761187 z"
           id="path3722"
           inkscape:connector-curvature="0"
           transform="translate(769,275)" />
        <path
           style="fill:#a0a0a0;stroke:none;stroke-width:0.06779661"
           d="M 1.220339,15.804971 C 0.8257442,15.626724 0.44140001,15.253081 0.21448149,14.827119 L 0.03389831,14.488136 V 8.0135593 1.5389831 L 0.17960446,1.2237854 C 0.35522999,0.84386481 0.77045302,0.41438215 1.1666786,0.20281295 L 1.4576271,0.04745763 H 10 18.542373 l 0.367624,0.20338983 c 0.40421,0.22363154 0.825157,0.70339505 0.965782,1.10072734 0.07281,0.2057171 0.09032,1.504143 0.09032,6.6958828 v 6.4406784 l -0.180583,0.338983 c -0.226916,0.425962 -0.61126,0.799605 -1.005855,0.977852 -0.301494,0.136192 -0.404824,0.137814 -8.779661,0.137814 -8.3748365,0 -8.4781669,-0.0016 -8.779661,-0.137814 z M 18.025877,9.2508475 C 18.021464,6.6127119 17.998584,4.3678407 17.97503,4.2622449 L 17.932203,4.0702526 16.983051,4.6424549 C 16.461017,4.9571662 14.730941,6.0257026 13.138437,7.0169803 11.545934,8.0082583 10.183463,8.8511539 10.110725,8.8900827 9.9984285,8.9501817 9.4737166,8.6459458 6.6333042,6.8738197 2.4628434,4.2718793 2.1043211,4.0561376 2.04664,4.1137836 2.020988,4.13942 1.9916039,6.3849843 1.981342,9.1039268 L 1.962684,14.047458 H 9.9982908 18.033898 Z M 12.014355,5.7536713 c 2.2068,-1.3686539 4.592978,-2.8674099 5.295316,-3.3259833 0.471743,-0.3080128 0.512735,-0.3509181 0.372881,-0.3902835 -0.219,-0.061643 -15.2463808,-0.059755 -15.4034791,0.00194 -0.1077238,0.042302 -0.070594,0.08645 0.2372882,0.2821452 0.2007472,0.1275982 0.3751643,0.2554294 0.3875937,0.2840694 0.012429,0.02864 0.048321,0.052072 0.07976,0.052072 0.031439,0 1.1348287,0.6768768 2.4519774,1.5041706 4.3126803,2.7087704 4.5321596,2.8386464 4.6712638,2.7642003 0.06883,-0.036836 0.927159,-0.5643832 1.907399,-1.1723267 z"
           id="path3724"
           inkscape:connector-curvature="0"
           transform="translate(769,275)" />
        <path
           style="fill:#6b4c9f;stroke:none;stroke-width:0.06779661;fill-opacity:1"
           d="M 1.220339,15.804971 C 0.8257442,15.626724 0.44140001,15.253081 0.21448149,14.827119 L 0.03389831,14.488136 V 7.979661 1.4711864 L 0.18685691,1.1849359 C 0.42953849,0.73077546 0.72255837,0.44251731 1.1676065,0.22012413 L 1.5809793,0.01355932 H 10 18.419021 l 0.413372,0.20656481 c 0.445048,0.22239318 0.738069,0.51065133 0.98075,0.96481177 l 0.152959,0.2862505 v 6.5084746 6.508475 l -0.180583,0.338983 C 19.5586,15.253081 19.174256,15.626724 18.779661,15.804971 18.478167,15.941163 18.374837,15.942785 10,15.942785 c -8.3748365,0 -8.4781669,-0.0016 -8.779661,-0.137814 z M 18.033898,9.6849912 c 0,-2.3993559 -0.01971,-4.6402059 -0.04381,-4.979666 L 17.946278,4.0881251 17.735851,4.1961396 C 17.620116,4.2555475 15.890618,5.3180584 13.892523,6.5572748 11.894427,7.7964908 10.195888,8.8445044 10.117991,8.8861939 9.9932136,8.9529729 9.5582251,8.7013471 6.4622667,6.7714847 4.5295148,5.5667055 2.7472051,4.4685899 2.5015784,4.3312277 L 2.0549845,4.0814781 2.0107911,5.0475187 C 1.9864847,5.578841 1.9664861,7.8211864 1.9663497,10.030508 l -2.48e-4,4.01695 H 10 18.033898 Z M 10.999366,6.3765848 c 1.801497,-1.1066806 5.79341,-3.6141775 6.28877,-3.9502544 L 17.79661,2.0813559 17.355932,2.0384328 C 16.76818,1.9811844 3.7414493,1.968302 2.8983051,2.0241354 c -0.3635593,0.024075 -0.661017,0.063091 -0.661017,0.086701 0,0.023611 1.6093221,1.0473985 3.5762712,2.2750838 1.9669492,1.2276853 3.6830509,2.300276 3.8135593,2.3835349 0.1305085,0.083259 0.2903926,0.1531756 0.3552983,0.1553695 0.064906,0.00219 0.5225331,-0.2445145 1.0169491,-0.5482398 z"
           id="path3726"
           inkscape:connector-curvature="0"
           transform="translate(769,275)" />
      </g>
    </g>
  </g>
</svg>
