<?xml version="1.0" encoding="UTF-8" standalone="no"?>
<svg
   xmlns:dc="http://purl.org/dc/elements/1.1/"
   xmlns:cc="http://creativecommons.org/ns#"
   xmlns:rdf="http://www.w3.org/1999/02/22-rdf-syntax-ns#"
   xmlns:svg="http://www.w3.org/2000/svg"
   xmlns="http://www.w3.org/2000/svg"
   xmlns:sodipodi="http://sodipodi.sourceforge.net/DTD/sodipodi-0.dtd"
   xmlns:inkscape="http://www.inkscape.org/namespaces/inkscape"
   width="24"
   height="24"
   viewBox="0 0 24 24"
   version="1.1"
   id="svg6"
   sodipodi:docname="outline-component-24px.svg"
   inkscape:version="0.92.1 r15371">
  <metadata
     id="metadata12">
    <rdf:RDF>
      <cc:Work
         rdf:about="">
        <dc:format>image/svg+xml</dc:format>
        <dc:type
           rdf:resource="http://purl.org/dc/dcmitype/StillImage" />
      </cc:Work>
    </rdf:RDF>
  </metadata>
  <defs
     id="defs10" />
  <sodipodi:namedview
     pagecolor="#ffffff"
     bordercolor="#666666"
     borderopacity="1"
     objecttolerance="10"
     gridtolerance="10"
     guidetolerance="10"
     inkscape:pageopacity="0"
     inkscape:pageshadow="2"
     inkscape:window-width="846"
     inkscape:window-height="480"
     id="namedview8"
     showgrid="false"
     inkscape:zoom="9.8333333"
     inkscape:cx="12.610169"
     inkscape:cy="11.59322"
     inkscape:window-x="0"
     inkscape:window-y="27"
     inkscape:window-maximized="0"
     inkscape:current-layer="svg6" />
  <path
     fill="none"
     d="M0 0h24v24H0V0z"
     id="path2" />
  <path
     d="M10.5 4.5c.28 0 .5.22.5.5v2h6v6h2c.28 0 .5.22.5.5s-.22.5-.5.5h-2v6h-2.12c-.68-1.75-2.39-3-4.38-3s-3.7 1.25-4.38 3H4v-2.12c1.75-.68 3-2.39 3-4.38 0-1.99-1.24-3.7-2.99-4.38L4 7h6V5c0-.28.22-.5.5-.5m0-2C9.12 2.5 8 3.62 8 5H4c-1.1 0-1.99.9-1.99 2v3.8h.29c1.49 0 2.7 1.21 2.7 2.7s-1.21 2.7-2.7 2.7H2V20c0 1.1.9 2 2 2h3.8v-.3c0-1.49 1.21-2.7 2.7-2.7s2.7 1.21 2.7 2.7v.3H17c1.1 0 2-.9 2-2v-4c1.38 0 2.5-1.12 2.5-2.5S20.38 11 19 11V7c0-1.1-.9-2-2-2h-4c0-1.38-1.12-2.5-2.5-2.5z"
     id="path4"
     style="fill:#a2a7af;fill-opacity:1" />
</svg>
