<?xml version="1.0" encoding="UTF-8"?>
<svg width="20px" height="16px" viewBox="0 0 20 16" version="1.1" xmlns="http://www.w3.org/2000/svg" xmlns:xlink="http://www.w3.org/1999/xlink">
    <!-- Generator: sketchtool 50.2 (55047) - http://www.bohemiancoding.com/sketch -->
    <title>EE40FDD0-7A6F-4449-A4CA-5F87DA088478@2x</title>
    <desc>Created with sketchtool.</desc>
    <defs></defs>
    <g id="Design" stroke="none" stroke-width="1" fill="none" fill-rule="evenodd" opacity="0.200000003">
        <g id="Style" transform="translate(-132.000000, -620.000000)">
            <g id="outline-visibility_off-20px" transform="translate(132.000000, 618.000000)">
                <g id="Bounding_Boxes">
                    <path d="M0,0 L20,0 L20,20 L0,20 L0,0 Z M0,0 L20,0 L20,20 L0,20 L0,0 Z M0,0 L20,0 L20,20 L0,20 L0,0 Z M0,0 L20,0 L20,20 L0,20 L0,0 Z" id="Shape"></path>
                </g>
                <g id="Outline" transform="translate(0.833333, 1.666667)" fill="#000000" fill-rule="nonzero">
                    <g id="Group">
                        <path d="M9.16666667,3.33333333 C12.325,3.33333333 15.1416667,5.10833333 16.5166667,7.91666667 C16.025,8.93333333 15.3333333,9.80833333 14.5083333,10.5166667 L15.6833333,11.6916667 C16.8416667,10.6666667 17.7583333,9.38333333 18.3333333,7.91666667 C16.8916667,4.25833333 13.3333333,1.66666667 9.16666667,1.66666667 C8.10833333,1.66666667 7.09166667,1.83333333 6.13333333,2.14166667 L7.50833333,3.51666667 C8.05,3.40833333 8.6,3.33333333 9.16666667,3.33333333 Z" id="Shape"></path>
                        <path d="M8.275,4.28333333 L10,6.00833333 C10.475,6.21666667 10.8583333,6.6 11.0666667,7.075 L12.7916667,8.8 C12.8583333,8.51666667 12.9083333,8.21666667 12.9083333,7.90833333 C12.9166667,5.84166667 11.2333333,4.16666667 9.16666667,4.16666667 C8.85833333,4.16666667 8.56666667,4.20833333 8.275,4.28333333 Z" id="Shape"></path>
                        <path d="M0.841666667,1.55833333 L3.075,3.79166667 C1.71666667,4.85833333 0.641666667,6.275 0,7.91666667 C1.44166667,11.575 5,14.1666667 9.16666667,14.1666667 C10.4333333,14.1666667 11.65,13.925 12.7666667,13.4833333 L15.6166667,16.3333333 L16.7916667,15.1583333 L2.01666667,0.375 L0.841666667,1.55833333 Z M7.09166667,7.80833333 L9.26666667,9.98333333 C9.23333333,9.99166667 9.2,10 9.16666667,10 C8.01666667,10 7.08333333,9.06666667 7.08333333,7.91666667 C7.08333333,7.875 7.09166667,7.85 7.09166667,7.80833333 Z M4.25833333,4.975 L5.71666667,6.43333333 C5.525,6.89166667 5.41666667,7.39166667 5.41666667,7.91666667 C5.41666667,9.98333333 7.1,11.6666667 9.16666667,11.6666667 C9.69166667,11.6666667 10.1916667,11.5583333 10.6416667,11.3666667 L11.4583333,12.1833333 C10.725,12.3833333 9.95833333,12.5 9.16666667,12.5 C6.00833333,12.5 3.19166667,10.725 1.81666667,7.91666667 C2.4,6.725 3.25,5.74166667 4.25833333,4.975 Z" id="Shape"></path>
                    </g>
                </g>
            </g>
        </g>
    </g>
</svg>