<?xml version="1.0" encoding="UTF-8"?>
<svg width="31px" height="40px" viewBox="0 0 31 40" version="1.1" xmlns="http://www.w3.org/2000/svg" xmlns:xlink="http://www.w3.org/1999/xlink">
    <!-- Generator: sketchtool 50.2 (55047) - http://www.bohemiancoding.com/sketch -->
    <title>30E602C5-897F-40CA-9B5F-41555476C38D@2x</title>
    <desc>Created with sketchtool.</desc>
    <defs></defs>
    <g id="Design" stroke="none" stroke-width="1" fill="none" fill-rule="evenodd">
        <g id="04-Dashboard" transform="translate(-332.000000, -99.000000)">
            <g id="Dashboard" transform="translate(292.000000, 24.000000)">
                <g id="Balance">
                    <g id="Seed-Icon" transform="translate(40.000000, 75.000000)">
                        <path d="M12.7483871,8.74285714 L12.7483871,6.8 L0,6.8 L0,1.94285714 L12.7483871,1.94285714 L12.7483871,0 L17.6516129,0 L17.6516129,1.94285714 L30.4,1.94285714 L30.4,6.8 L17.6516129,6.8 L17.6516129,8.74285714 L30.4,8.74285714 L30.4,13.6 L0,13.6 L0,8.74285714 L12.7483871,8.74285714 Z" id="Combined-Shape" fill="#39B54A"></path>
                        <path d="M30.4,16 C30.1170193,22.7347499 28.8557121,28.0910892 26.6168351,31.6285706 C24.3771258,35.1667835 20.5659655,37.8109319 15.2,40 C9.83320225,37.8109319 6.02204191,35.1667835 3.78316492,31.6285706 C1.54353129,28.0910892 0.282224103,22.7347499 0,16 L5.45608044,16 C5.35015182,21.0080785 6.09392205,25.0328324 7.68814774,28.0727982 C9.28313007,31.1134957 11.792125,33.3310978 15.2,34.7256044 C18.6071183,33.3310978 21.1168699,31.1134957 22.7110956,28.0727982 C24.3053213,25.0328324 25.0498482,21.0080785 24.9431629,16 L30.4,16 Z" id="Shape" fill="#6B4C9F"></path>
                    </g>
                </g>
            </g>
        </g>
    </g>
</svg>