<?xml version="1.0" encoding="UTF-8"?>
<svg width="15px" height="14px" viewBox="0 0 15 14" version="1.1" xmlns="http://www.w3.org/2000/svg" xmlns:xlink="http://www.w3.org/1999/xlink">
    <!-- Generator: sketchtool 50.2 (55047) - http://www.bohemiancoding.com/sketch -->
    <title>44FFB80F-91D1-4949-BEAC-8C50D14302F4@2x</title>
    <desc>Created with sketchtool.</desc>
    <defs></defs>
    <g id="Design" stroke="none" stroke-width="1" fill="none" fill-rule="evenodd">
        <g id="04-Dashboard" transform="translate(-1075.000000, -110.000000)">
            <g id="Dashboard" transform="translate(292.000000, 24.000000)">
                <g id="Latest-Transactions" transform="translate(689.000000, 0.000000)">
                    <g id="btns" transform="translate(34.000000, 71.000000)">
                        <g id="Send-btn">
                            <g id="Send-Icon" transform="translate(60.000000, 14.000000)">
                                <g id="Icon">
                                    <rect id="Rectangle-4" x="0" y="0" width="16" height="16"></rect>
                                    <path d="M0.923076923,14.2900223 L14.5230769,8.62335563 C14.8629445,8.48174416 15.0236628,8.0914283 14.8820513,7.75156076 C14.8144187,7.58924266 14.685395,7.46021894 14.5230769,7.3925864 L0.923076923,1.72591973 C0.583209385,1.58430826 0.192893526,1.74502655 0.0512820513,2.08489409 C0.0174292261,2.16614087 -1.0779016e-17,2.253287 0,2.34130435 L0,6.52648953 L11.4285714,8.00797101 L0,9.4894525 L1.22124533e-15,13.6746377 C1.26633558e-15,14.0428275 0.298476833,14.3413043 0.666666667,14.3413043 C0.754684012,14.3413043 0.841830143,14.3238751 0.923076923,14.2900223 Z" id="Shape" fill="#FFFFFF" fill-rule="nonzero"></path>
                                </g>
                            </g>
                        </g>
                    </g>
                </g>
            </g>
        </g>
    </g>
</svg>