<?xml version="1.0" encoding="UTF-8"?>
<svg width="20px" height="20px" viewBox="0 0 20 20" version="1.1" xmlns="http://www.w3.org/2000/svg" xmlns:xlink="http://www.w3.org/1999/xlink">
    <!-- Generator: sketchtool 50.2 (55047) - http://www.bohemiancoding.com/sketch -->
    <title>3B109014-DDC4-4122-B118-A41E2E85B437@2x</title>
    <desc>Created with sketchtool.</desc>
    <defs></defs>
    <g id="Design" stroke="none" stroke-width="1" fill="none" fill-rule="evenodd">
        <g id="Style" transform="translate(-739.000000, -654.000000)">
            <g id="Success" transform="translate(720.000000, 636.000000)">
                <g id="outline-check_circle-24px" transform="translate(17.000000, 16.000000)">
                    <g id="Bounding_Boxes">
                        <polygon id="Shape" points="0 0 24 0 24 24 0 24"></polygon>
                    </g>
                    <g id="Outline" transform="translate(2.000000, 2.000000)" fill="#39B54A" fill-rule="nonzero">
                        <g id="Group">
                            <path d="M10,0 C4.48,0 0,4.48 0,10 C0,15.52 4.48,20 10,20 C15.52,20 20,15.52 20,10 C20,4.48 15.52,0 10,0 Z M10,18 C5.59,18 2,14.41 2,10 C2,5.59 5.59,2 10,2 C14.41,2 18,5.59 18,10 C18,14.41 14.41,18 10,18 Z" id="Shape"></path>
                            <polygon id="Shape" points="14.59 5.58 8 12.17 5.41 9.59 4 11 8 15 16 7"></polygon>
                        </g>
                    </g>
                </g>
            </g>
        </g>
    </g>
</svg>